<!--CREATED WITH SATORI VERCEL: https://og-playground.vercel.app/-->

<svg width="830" height="460" viewBox="0 0 830 460" xmlns="http://www.w3.org/2000/svg"><mask id="satori_om-id"><rect x="0" y="0" width="830" height="460" fill="#fff"/></mask><rect x="0" y="0" width="830" height="460" fill="white"/><mask id="satori_om-id-0"><rect x="42" y="42" width="162" height="24" fill="#fff"/></mask><mask id="satori_om-id-0-0"><rect x="42" y="42" width="24" height="24" fill="#fff"/></mask><rect x="42" y="42" width="24" height="24" fill="black"/><mask id="satori_om-id-0-1"><rect x="74" y="42" width="130" height="24" fill="#fff"/></mask><path fill="black" d="M78.3 61.6L78.3 61.6Q77.3 61.6 76.5 61.2Q75.6 60.8 75.2 60.1Q74.7 59.4 74.7 58.3L74.7 58.3Q74.7 57.4 75.0 56.8Q75.4 56.2 75.9 55.8Q76.5 55.4 77.2 55.2Q78.0 55.0 78.8 55.0L78.8 55.0Q79.7 54.9 80.3 54.8Q80.9 54.7 81.2 54.5Q81.4 54.3 81.4 54.0L81.4 54.0L81.4 53.9Q81.4 53.3 81.0 52.9Q80.6 52.5 79.8 52.5L79.8 52.5Q79 52.5 78.5 52.9Q78.0 53.3 77.9 53.8L77.9 53.8L75.1 53.6Q75.3 52.6 75.9 51.8Q76.5 51.1 77.5 50.7Q78.5 50.3 79.8 50.3L79.8 50.3Q80.7 50.3 81.6 50.5Q82.4 50.8 83.1 51.2Q83.7 51.6 84.1 52.3Q84.5 53.0 84.5 54.0L84.5 54.0L84.5 61.4L81.6 61.4L81.6 59.9L81.5 59.9Q81.2 60.4 80.8 60.8Q80.4 61.1 79.7 61.4Q79.1 61.6 78.3 61.6ZM79.2 59.5L79.2 59.5Q79.9 59.5 80.4 59.2Q80.9 59.0 81.2 58.5Q81.5 58.1 81.5 57.5L81.5 57.5L81.5 56.3Q81.3 56.4 81.1 56.5Q80.8 56.6 80.5 56.6Q80.2 56.7 79.9 56.7Q79.6 56.8 79.4 56.8L79.4 56.8Q78.8 56.9 78.4 57.1Q78.0 57.2 77.8 57.5Q77.6 57.8 77.6 58.2L77.6 58.2Q77.6 58.8 78.0 59.2Q78.5 59.5 79.2 59.5ZM89.5 65.5L86.5 65.5L86.5 50.5L89.5 50.5L89.5 52.3L89.6 52.3Q89.8 51.9 90.2 51.4Q90.6 50.9 91.2 50.6Q91.8 50.3 92.7 50.3L92.7 50.3Q93.9 50.3 94.9 50.9Q95.9 51.6 96.5 52.8Q97.1 54.1 97.1 55.9L97.1 55.9Q97.1 57.8 96.5 59.0Q96.0 60.3 95.0 60.9Q93.9 61.6 92.7 61.6L92.7 61.6Q91.8 61.6 91.2 61.3Q90.6 61.0 90.2 60.5Q89.8 60.1 89.6 59.6L89.6 59.6L89.5 59.6L89.5 65.5ZM89.5 55.9L89.5 55.9Q89.5 56.9 89.7 57.6Q90.0 58.3 90.5 58.7Q91.0 59.1 91.7 59.1L91.7 59.1Q92.5 59.1 93.0 58.7Q93.5 58.3 93.8 57.6Q94.0 56.9 94.0 55.9L94.0 55.9Q94.0 55.0 93.8 54.3Q93.5 53.5 93.0 53.1Q92.5 52.7 91.7 52.7L91.7 52.7Q91.0 52.7 90.5 53.1Q90.0 53.5 89.7 54.2Q89.5 54.9 89.5 55.9ZM101.8 65.5L98.8 65.5L98.8 50.5L101.8 50.5L101.8 52.3L101.9 52.3Q102.1 51.9 102.5 51.4Q102.9 50.9 103.5 50.6Q104.1 50.3 105.0 50.3L105.0 50.3Q106.2 50.3 107.2 50.9Q108.3 51.6 108.9 52.8Q109.5 54.1 109.5 55.9L109.5 55.9Q109.5 57.8 108.9 59.0Q108.3 60.3 107.3 60.9Q106.3 61.6 105.0 61.6L105.0 61.6Q104.2 61.6 103.5 61.3Q102.9 61.0 102.5 60.5Q102.1 60.1 101.9 59.6L101.9 59.6L101.8 59.6L101.8 65.5ZM101.8 55.9L101.8 55.9Q101.8 56.9 102.1 57.6Q102.3 58.3 102.8 58.7Q103.3 59.1 104.1 59.1L104.1 59.1Q104.8 59.1 105.3 58.7Q105.8 58.3 106.1 57.6Q106.4 56.9 106.4 55.9L106.4 55.9Q106.4 55.0 106.1 54.3Q105.8 53.5 105.3 53.1Q104.8 52.7 104.1 52.7L104.1 52.7Q103.3 52.7 102.8 53.1Q102.3 53.5 102.1 54.2Q101.8 54.9 101.8 55.9ZM111.2 46.8L114.2 46.8L114.2 61.4L111.2 61.4L111.2 46.8ZM119.3 61.4L116.3 61.4L116.3 50.5L119.3 50.5L119.3 61.4ZM117.8 49.1L117.8 49.1Q117.1 49.1 116.6 48.6Q116.2 48.2 116.2 47.5L116.2 47.5Q116.2 46.9 116.6 46.4Q117.1 46.0 117.8 46.0L117.8 46.0Q118.5 46.0 118.9 46.4Q119.4 46.9 119.4 47.5L119.4 47.5Q119.4 48.2 118.9 48.6Q118.5 49.1 117.8 49.1ZM126.3 61.6L126.3 61.6Q124.6 61.6 123.4 60.9Q122.2 60.2 121.6 58.9Q121.0 57.6 121.0 56.0L121.0 56.0Q121.0 54.3 121.6 53.0Q122.3 51.8 123.5 51.0Q124.7 50.3 126.3 50.3L126.3 50.3Q127.7 50.3 128.8 50.8Q129.9 51.4 130.5 52.3Q131.1 53.2 131.2 54.5L131.2 54.5L128.3 54.5Q128.2 53.7 127.7 53.2Q127.2 52.7 126.4 52.7L126.4 52.7Q125.7 52.7 125.1 53.1Q124.6 53.4 124.3 54.2Q124.0 54.9 124.0 55.9L124.0 55.9Q124.0 57.0 124.3 57.7Q124.6 58.4 125.1 58.8Q125.7 59.2 126.4 59.2L126.4 59.2Q126.9 59.2 127.3 59.0Q127.7 58.8 128.0 58.4Q128.3 58.0 128.3 57.4L128.3 57.4L131.2 57.4Q131.1 58.6 130.5 59.6Q129.9 60.5 128.8 61.1Q127.8 61.6 126.3 61.6ZM135.9 61.6L135.9 61.6Q134.9 61.6 134.1 61.2Q133.3 60.8 132.8 60.1Q132.3 59.4 132.3 58.3L132.3 58.3Q132.3 57.4 132.6 56.8Q133.0 56.2 133.6 55.8Q134.1 55.4 134.9 55.2Q135.6 55.0 136.4 55.0L136.4 55.0Q137.4 54.9 137.9 54.8Q138.5 54.7 138.8 54.5Q139.0 54.3 139.0 54.0L139.0 54.0L139.0 53.9Q139.0 53.3 138.6 52.9Q138.2 52.5 137.4 52.5L137.4 52.5Q136.6 52.5 136.1 52.9Q135.6 53.3 135.5 53.8L135.5 53.8L132.7 53.6Q132.9 52.6 133.5 51.8Q134.2 51.1 135.1 50.7Q136.1 50.3 137.4 50.3L137.4 50.3Q138.4 50.3 139.2 50.5Q140.0 50.8 140.7 51.2Q141.3 51.6 141.7 52.3Q142.1 53.0 142.1 54.0L142.1 54.0L142.1 61.4L139.2 61.4L139.2 59.9L139.1 59.9Q138.9 60.4 138.4 60.8Q138.0 61.1 137.4 61.4Q136.7 61.6 135.9 61.6ZM136.8 59.5L136.8 59.5Q137.5 59.5 138.0 59.2Q138.5 59.0 138.8 58.5Q139.1 58.1 139.1 57.5L139.1 57.5L139.1 56.3Q138.9 56.4 138.7 56.5Q138.4 56.6 138.1 56.6Q137.8 56.7 137.5 56.7Q137.2 56.8 137.0 56.8L137.0 56.8Q136.4 56.9 136.0 57.1Q135.6 57.2 135.4 57.5Q135.2 57.8 135.2 58.2L135.2 58.2Q135.2 58.8 135.6 59.2Q136.1 59.5 136.8 59.5ZM147.1 61.4L144.1 61.4L144.1 50.5L147.0 50.5L147.0 52.4L147.2 52.4Q147.4 51.4 148.2 50.8Q148.9 50.3 149.8 50.3L149.8 50.3Q150.0 50.3 150.3 50.3Q150.5 50.4 150.7 50.4L150.7 50.4L150.7 53.1Q150.5 53.0 150.1 53.0Q149.8 52.9 149.4 52.9L149.4 52.9Q148.8 52.9 148.3 53.2Q147.7 53.5 147.4 54.0Q147.1 54.5 147.1 55.2L147.1 55.2L147.1 61.4ZM156.4 61.6L156.4 61.6Q154.7 61.6 153.5 60.9Q152.3 60.2 151.7 59.0Q151.0 57.7 151.0 56.0L151.0 56.0Q151.0 54.3 151.7 53.0Q152.3 51.7 153.5 51.0Q154.7 50.3 156.3 50.3L156.3 50.3Q157.4 50.3 158.3 50.7Q159.2 51.0 159.9 51.7Q160.6 52.4 161.0 53.4Q161.4 54.5 161.4 55.9L161.4 55.9L161.4 56.7L152.2 56.7L152.2 54.8L158.6 54.8Q158.6 54.2 158.3 53.7Q158.0 53.2 157.5 52.9Q157.0 52.6 156.3 52.6L156.3 52.6Q155.7 52.6 155.1 52.9Q154.6 53.2 154.3 53.7Q154.0 54.3 154.0 54.9L154.0 54.9L154.0 56.7Q154.0 57.5 154.3 58.1Q154.6 58.7 155.2 59.0Q155.7 59.3 156.5 59.3L156.5 59.3Q157.0 59.3 157.4 59.2Q157.8 59.0 158.1 58.8Q158.4 58.5 158.6 58.1L158.6 58.1L161.4 58.3Q161.1 59.3 160.5 60.0Q159.8 60.8 158.8 61.2Q157.8 61.6 156.4 61.6ZM164.8 61.6L164.8 61.6Q164.1 61.6 163.6 61.1Q163.1 60.6 163.1 59.9L163.1 59.9Q163.1 59.2 163.6 58.7Q164.1 58.2 164.8 58.2L164.8 58.2Q165.5 58.2 166.0 58.7Q166.6 59.2 166.6 59.9L166.6 59.9Q166.6 60.3 166.3 60.7Q166.1 61.1 165.7 61.3Q165.3 61.6 164.8 61.6ZM171.8 61.6L171.8 61.6Q170.8 61.6 170.0 61.2Q169.1 60.8 168.7 60.1Q168.2 59.4 168.2 58.3L168.2 58.3Q168.2 57.4 168.5 56.8Q168.9 56.2 169.4 55.8Q170.0 55.4 170.8 55.2Q171.5 55.0 172.3 55.0L172.3 55.0Q173.3 54.9 173.8 54.8Q174.4 54.7 174.7 54.5Q174.9 54.3 174.9 54.0L174.9 54.0L174.9 53.9Q174.9 53.3 174.5 52.9Q174.1 52.5 173.3 52.5L173.3 52.5Q172.5 52.5 172.0 52.9Q171.5 53.3 171.4 53.8L171.4 53.8L168.6 53.6Q168.8 52.6 169.4 51.8Q170.0 51.1 171.0 50.7Q172.0 50.3 173.3 50.3L173.3 50.3Q174.2 50.3 175.1 50.5Q175.9 50.8 176.6 51.2Q177.2 51.6 177.6 52.3Q178.0 53.0 178.0 54.0L178.0 54.0L178.0 61.4L175.1 61.4L175.1 59.9L175.0 59.9Q174.7 60.4 174.3 60.8Q173.9 61.1 173.3 61.4Q172.6 61.6 171.8 61.6ZM172.7 59.5L172.7 59.5Q173.4 59.5 173.9 59.2Q174.4 59.0 174.7 58.5Q175.0 58.1 175.0 57.5L175.0 57.5L175.0 56.3Q174.8 56.4 174.6 56.5Q174.3 56.6 174.0 56.6Q173.7 56.7 173.4 56.7Q173.1 56.8 172.9 56.8L172.9 56.8Q172.3 56.9 171.9 57.1Q171.5 57.2 171.3 57.5Q171.1 57.8 171.1 58.2L171.1 58.2Q171.1 58.8 171.5 59.2Q172.0 59.5 172.7 59.5ZM183.0 65.5L180.0 65.5L180.0 50.5L183.0 50.5L183.0 52.3L183.1 52.3Q183.3 51.9 183.7 51.4Q184.1 50.9 184.7 50.6Q185.3 50.3 186.2 50.3L186.2 50.3Q187.4 50.3 188.4 50.9Q189.4 51.6 190.0 52.8Q190.6 54.1 190.6 55.9L190.6 55.9Q190.6 57.8 190.1 59.0Q189.5 60.3 188.5 60.9Q187.5 61.6 186.2 61.6L186.2 61.6Q185.3 61.6 184.7 61.3Q184.1 61.0 183.7 60.5Q183.3 60.1 183.1 59.6L183.1 59.6L183.0 59.6L183.0 65.5ZM183.0 55.9L183.0 55.9Q183.0 56.9 183.2 57.6Q183.5 58.3 184.0 58.7Q184.5 59.1 185.3 59.1L185.3 59.1Q186.0 59.1 186.5 58.7Q187.0 58.3 187.3 57.6Q187.5 56.9 187.5 55.9L187.5 55.9Q187.5 55.0 187.3 54.3Q187.0 53.5 186.5 53.1Q186.0 52.7 185.3 52.7L185.3 52.7Q184.5 52.7 184.0 53.1Q183.5 53.5 183.2 54.2Q183.0 54.9 183.0 55.9ZM195.4 65.5L192.3 65.5L192.3 50.5L195.3 50.5L195.3 52.3L195.4 52.3Q195.6 51.9 196.0 51.4Q196.4 50.9 197.0 50.6Q197.6 50.3 198.5 50.3L198.5 50.3Q199.7 50.3 200.7 50.9Q201.8 51.6 202.4 52.8Q203.0 54.1 203.0 55.9L203.0 55.9Q203.0 57.8 202.4 59.0Q201.8 60.3 200.8 60.9Q199.8 61.6 198.5 61.6L198.5 61.6Q197.7 61.6 197.0 61.3Q196.4 61.0 196.0 60.5Q195.7 60.1 195.4 59.6L195.4 59.6L195.4 59.6L195.4 65.5ZM195.3 55.9L195.3 55.9Q195.3 56.9 195.6 57.6Q195.8 58.3 196.3 58.7Q196.9 59.1 197.6 59.1L197.6 59.1Q198.3 59.1 198.8 58.7Q199.3 58.3 199.6 57.6Q199.9 56.9 199.9 55.9L199.9 55.9Q199.9 55.0 199.6 54.3Q199.4 53.5 198.8 53.1Q198.3 52.7 197.6 52.7L197.6 52.7Q196.8 52.7 196.3 53.1Q195.8 53.5 195.6 54.2Q195.3 54.9 195.3 55.9Z "/><mask id="satori_om-id-1"><rect x="140" y="154" width="550" height="152" fill="#fff"/></mask><rect x="140" y="154" width="550" height="152" fill="black"/><path fill="white" d="M291.5 216.5L291.5 187.5L299.1 187.5L307.1 207L307.4 207L315.4 187.5L323.0 187.5L323.0 216.5L317.1 216.5L317.1 197.6L316.8 197.6L309.3 216.4L305.2 216.4L297.7 197.5L297.5 197.5L297.5 216.5L291.5 216.5ZM333.9 217.0L333.9 217.0Q331.8 217.0 330.1 216.2Q328.5 215.5 327.6 214.1Q326.6 212.6 326.6 210.5L326.6 210.5Q326.6 208.6 327.3 207.4Q328.0 206.2 329.1 205.4Q330.3 204.7 331.7 204.3Q333.2 203.9 334.8 203.7L334.8 203.7Q336.7 203.5 337.9 203.4Q339.1 203.2 339.6 202.8Q340.1 202.5 340.1 201.8L340.1 201.8L340.1 201.7Q340.1 200.3 339.3 199.6Q338.4 198.9 336.9 198.9L336.9 198.9Q335.2 198.9 334.3 199.6Q333.3 200.3 333.0 201.4L333.0 201.4L327.4 200.9Q327.8 198.9 329.1 197.5Q330.3 196.0 332.3 195.2Q334.3 194.4 336.9 194.4L336.9 194.4Q338.7 194.4 340.4 194.9Q342.1 195.3 343.4 196.2Q344.7 197.1 345.4 198.5Q346.2 199.9 346.2 201.8L346.2 201.8L346.2 216.5L340.4 216.5L340.4 213.5L340.2 213.5Q339.7 214.5 338.8 215.3Q338.0 216.1 336.7 216.5Q335.5 217.0 333.9 217.0ZM335.6 212.8L335.6 212.8Q336.9 212.8 338.0 212.2Q339.0 211.7 339.6 210.8Q340.1 209.9 340.1 208.7L340.1 208.7L340.1 206.4Q339.9 206.6 339.4 206.8Q338.9 206.9 338.3 207.0Q337.7 207.2 337.1 207.2Q336.4 207.3 335.9 207.4L335.9 207.4Q334.9 207.6 334.1 207.9Q333.3 208.3 332.8 208.8Q332.4 209.4 332.4 210.3L332.4 210.3Q332.4 211.5 333.3 212.1Q334.2 212.8 335.6 212.8ZM356.6 203.9L356.6 203.9L356.6 216.5L350.5 216.5L350.5 194.7L356.3 194.7L356.3 198.6L356.6 198.6Q357.3 196.7 359.0 195.6Q360.7 194.4 363.1 194.4L363.1 194.4Q365.4 194.4 367.1 195.4Q368.8 196.4 369.7 198.3Q370.7 200.1 370.7 202.7L370.7 202.7L370.7 216.5L364.6 216.5L364.6 203.7Q364.6 201.7 363.6 200.6Q362.5 199.5 360.7 199.5L360.7 199.5Q359.5 199.5 358.6 200.0Q357.6 200.5 357.1 201.5Q356.6 202.5 356.6 203.9ZM381.3 217.0L381.3 217.0Q379.2 217.0 377.6 216.2Q376.0 215.5 375.0 214.1Q374.1 212.6 374.1 210.5L374.1 210.5Q374.1 208.6 374.7 207.4Q375.4 206.2 376.6 205.4Q377.7 204.7 379.2 204.3Q380.6 203.9 382.3 203.7L382.3 203.7Q384.2 203.5 385.3 203.4Q386.5 203.2 387.0 202.8Q387.5 202.5 387.5 201.8L387.5 201.8L387.5 201.7Q387.5 200.3 386.7 199.6Q385.9 198.9 384.3 198.9L384.3 198.9Q382.7 198.9 381.7 199.6Q380.7 200.3 380.4 201.4L380.4 201.4L374.8 200.9Q375.3 198.9 376.5 197.5Q377.8 196.0 379.7 195.2Q381.7 194.4 384.3 194.4L384.3 194.4Q386.2 194.4 387.8 194.9Q389.5 195.3 390.8 196.2Q392.1 197.1 392.8 198.5Q393.6 199.9 393.6 201.8L393.6 201.8L393.6 216.5L387.9 216.5L387.9 213.5L387.7 213.5Q387.2 214.5 386.3 215.3Q385.4 216.1 384.2 216.5Q382.9 217.0 381.3 217.0ZM383.0 212.8L383.0 212.8Q384.4 212.8 385.4 212.2Q386.4 211.7 387.0 210.8Q387.6 209.9 387.6 208.7L387.6 208.7L387.6 206.4Q387.3 206.6 386.8 206.8Q386.3 206.9 385.7 207.0Q385.1 207.2 384.5 207.2Q383.9 207.3 383.4 207.4L383.4 207.4Q382.3 207.6 381.5 207.9Q380.7 208.3 380.3 208.8Q379.8 209.4 379.8 210.3L379.8 210.3Q379.8 211.5 380.8 212.1Q381.7 212.8 383.0 212.8ZM407.8 225.2L407.8 225.2Q404.9 225.2 402.8 224.4Q400.7 223.6 399.4 222.2Q398.2 220.8 397.8 219.1L397.8 219.1L403.4 218.3Q403.7 219.0 404.2 219.6Q404.8 220.1 405.7 220.5Q406.6 220.8 408.0 220.8L408.0 220.8Q409.9 220.8 411.2 219.9Q412.5 218.9 412.5 216.7L412.5 216.7L412.5 212.7L412.2 212.7Q411.8 213.6 411.0 214.4Q410.3 215.2 409.0 215.7Q407.8 216.2 406.0 216.2L406.0 216.2Q403.6 216.2 401.6 215.1Q399.5 213.9 398.4 211.6Q397.2 209.2 397.2 205.6L397.2 205.6Q397.2 201.9 398.4 199.4Q399.6 196.9 401.6 195.7Q403.6 194.4 406.0 194.4L406.0 194.4Q407.8 194.4 409.1 195.1Q410.3 195.7 411.1 196.6Q411.8 197.5 412.2 198.4L412.2 198.4L412.5 198.4L412.5 194.7L418.5 194.7L418.5 216.8Q418.5 219.5 417.1 221.4Q415.7 223.3 413.3 224.2Q410.9 225.2 407.8 225.2ZM407.9 211.7L407.9 211.7Q409.4 211.7 410.4 211.0Q411.4 210.2 412.0 208.9Q412.5 207.5 412.5 205.6L412.5 205.6Q412.5 203.6 412.0 202.2Q411.4 200.8 410.4 200.0Q409.4 199.3 407.9 199.3L407.9 199.3Q406.4 199.3 405.4 200.1Q404.4 200.9 403.9 202.3Q403.3 203.7 403.3 205.6L403.3 205.6Q403.3 207.5 403.9 208.8Q404.4 210.2 405.4 210.9Q406.4 211.7 407.9 211.7ZM432.9 217.0L432.9 217.0Q429.6 217.0 427.1 215.6Q424.7 214.2 423.4 211.7Q422.1 209.2 422.1 205.7L422.1 205.7Q422.1 202.4 423.4 199.8Q424.7 197.3 427.1 195.9Q429.5 194.4 432.7 194.4L432.7 194.4Q434.8 194.4 436.7 195.1Q438.6 195.8 440.0 197.2Q441.4 198.6 442.2 200.7Q442.9 202.7 442.9 205.5L442.9 205.5L442.9 207.2L424.5 207.2L424.5 203.4L437.2 203.4Q437.2 202.1 436.7 201.1Q436.1 200.1 435.1 199.5Q434.1 199.0 432.8 199.0L432.8 199.0Q431.4 199.0 430.4 199.6Q429.3 200.2 428.7 201.3Q428.1 202.3 428.1 203.6L428.1 203.6L428.1 207.2Q428.1 208.8 428.7 210.0Q429.3 211.2 430.4 211.8Q431.5 212.5 433.0 212.5L433.0 212.5Q434.0 212.5 434.9 212.2Q435.7 211.9 436.3 211.3Q436.9 210.8 437.2 209.9L437.2 209.9L442.8 210.3Q442.4 212.3 441.1 213.8Q439.8 215.3 437.7 216.1Q435.6 217.0 432.9 217.0Z M459.3 224.7L459.3 224.7Q458.1 224.7 457.1 224.5Q456.1 224.4 455.5 224.1L455.5 224.1L456.8 219.6Q457.9 219.9 458.7 219.9Q459.6 220.0 460.2 219.5Q460.9 219.1 461.3 218.1L461.3 218.1L461.6 217.2L453.8 194.7L460.2 194.7L464.7 210.8L464.9 210.8L469.5 194.7L475.9 194.7L467.4 218.9Q466.8 220.7 465.7 222.0Q464.7 223.3 463.1 224.0Q461.5 224.7 459.3 224.7ZM487.8 217.0L487.8 217.0Q484.5 217.0 482.1 215.6Q479.7 214.1 478.3 211.6Q477.0 209.1 477.0 205.7L477.0 205.7Q477.0 202.3 478.3 199.8Q479.7 197.3 482.1 195.9Q484.5 194.4 487.8 194.4L487.8 194.4Q491.1 194.4 493.5 195.9Q495.9 197.3 497.2 199.8Q498.5 202.3 498.5 205.7L498.5 205.7Q498.5 209.1 497.2 211.6Q495.9 214.1 493.5 215.6Q491.1 217.0 487.8 217.0ZM487.8 212.3L487.8 212.3Q489.3 212.3 490.3 211.4Q491.3 210.6 491.8 209.1Q492.4 207.6 492.4 205.7L492.4 205.7Q492.4 203.8 491.8 202.3Q491.3 200.8 490.3 199.9Q489.3 199.1 487.8 199.1L487.8 199.1Q486.3 199.1 485.3 199.9Q484.2 200.8 483.7 202.3Q483.2 203.8 483.2 205.7L483.2 205.7Q483.2 207.6 483.7 209.1Q484.2 210.6 485.3 211.4Q486.3 212.3 487.8 212.3ZM516.1 207.3L516.1 207.3L516.1 194.7L522.2 194.7L522.2 216.5L516.4 216.5L516.4 212.6L516.2 212.6Q515.4 214.5 513.7 215.7Q512.0 216.8 509.5 216.8L509.5 216.8Q507.3 216.8 505.7 215.8Q504.0 214.8 503.1 213.0Q502.2 211.2 502.1 208.6L502.1 208.6L502.1 194.7L508.2 194.7L508.2 207.5Q508.2 209.5 509.2 210.6Q510.3 211.7 512.0 211.7L512.0 211.7Q513.1 211.7 514.0 211.2Q515.0 210.7 515.6 209.7Q516.2 208.7 516.1 207.3ZM532.8 216.5L526.7 216.5L526.7 194.7L532.6 194.7L532.6 198.5L532.8 198.5Q533.4 196.5 534.8 195.5Q536.2 194.4 538.0 194.4L538.0 194.4Q538.5 194.4 539.0 194.5Q539.5 194.5 539.9 194.6L539.9 194.6L539.9 200.0Q539.5 199.9 538.8 199.8Q538.0 199.7 537.4 199.7L537.4 199.7Q536.0 199.7 535.0 200.2Q534.0 200.8 533.4 201.8Q532.8 202.9 532.8 204.2L532.8 204.2L532.8 216.5Z M202.4 273.0L202.4 273.0Q200.3 273.0 198.6 272.2Q197.0 271.5 196.1 270.1Q195.1 268.6 195.1 266.5L195.1 266.5Q195.1 264.6 195.8 263.4Q196.4 262.2 197.6 261.4Q198.7 260.7 200.2 260.3Q201.7 259.9 203.3 259.7L203.3 259.7Q205.2 259.5 206.4 259.4Q207.5 259.2 208.1 258.8Q208.6 258.5 208.6 257.8L208.6 257.8L208.6 257.7Q208.6 256.3 207.7 255.6Q206.9 254.9 205.3 254.9L205.3 254.9Q203.7 254.9 202.7 255.6Q201.8 256.3 201.5 257.4L201.5 257.4L195.9 256.9Q196.3 254.9 197.6 253.5Q198.8 252.0 200.8 251.2Q202.8 250.4 205.4 250.4L205.4 250.4Q207.2 250.4 208.9 250.9Q210.5 251.3 211.8 252.2Q213.1 253.1 213.9 254.5Q214.6 255.9 214.6 257.8L214.6 257.8L214.6 272.5L208.9 272.5L208.9 269.5L208.7 269.5Q208.2 270.5 207.3 271.3Q206.4 272.1 205.2 272.5Q204.0 273.0 202.4 273.0ZM204.1 268.8L204.1 268.8Q205.4 268.8 206.4 268.2Q207.5 267.7 208.0 266.8Q208.6 265.9 208.6 264.7L208.6 264.7L208.6 262.4Q208.3 262.6 207.9 262.8Q207.4 262.9 206.8 263.0Q206.1 263.2 205.5 263.2Q204.9 263.3 204.4 263.4L204.4 263.4Q203.4 263.6 202.6 263.9Q201.8 264.3 201.3 264.8Q200.9 265.4 200.9 266.3L200.9 266.3Q200.9 267.5 201.8 268.1Q202.7 268.8 204.1 268.8ZM225.1 280.7L219.0 280.7L219.0 250.7L225.0 250.7L225.0 254.4L225.3 254.4Q225.7 253.5 226.4 252.6Q227.2 251.7 228.4 251.1Q229.6 250.4 231.5 250.4L231.5 250.4Q233.9 250.4 235.9 251.7Q237.9 252.9 239.1 255.4Q240.3 257.9 240.3 261.7L240.3 261.7Q240.3 265.3 239.1 267.8Q238.0 270.3 235.9 271.6Q233.9 272.9 231.4 272.9L231.4 272.9Q229.7 272.9 228.5 272.3Q227.2 271.7 226.4 270.8Q225.7 270.0 225.3 269.1L225.3 269.1L225.1 269.1L225.1 280.7ZM224.9 261.6L224.9 261.6Q224.9 263.6 225.5 265.0Q226.0 266.5 227.0 267.3Q228.1 268.1 229.5 268.1L229.5 268.1Q231.0 268.1 232.0 267.3Q233.1 266.5 233.6 265.0Q234.1 263.5 234.1 261.6L234.1 261.6Q234.1 259.7 233.6 258.3Q233.1 256.9 232.0 256.1Q231.0 255.3 229.5 255.3L229.5 255.3Q228.1 255.3 227.0 256.0Q226.0 256.8 225.5 258.3Q224.9 259.7 224.9 261.6ZM250.0 280.7L244.0 280.7L244.0 250.7L250.0 250.7L250.0 254.4L250.2 254.4Q250.6 253.5 251.4 252.6Q252.2 251.7 253.4 251.1Q254.6 250.4 256.4 250.4L256.4 250.4Q258.8 250.4 260.8 251.7Q262.9 252.9 264.1 255.4Q265.3 257.9 265.3 261.7L265.3 261.7Q265.3 265.3 264.1 267.8Q262.9 270.3 260.9 271.6Q258.9 272.9 256.4 272.9L256.4 272.9Q254.7 272.9 253.4 272.3Q252.2 271.7 251.4 270.8Q250.6 270.0 250.2 269.1L250.2 269.1L250.0 269.1L250.0 280.7ZM249.9 261.6L249.9 261.6Q249.9 263.6 250.5 265.0Q251.0 266.5 252.0 267.3Q253.0 268.1 254.5 268.1L254.5 268.1Q256.0 268.1 257.0 267.3Q258.0 266.5 258.6 265.0Q259.1 263.5 259.1 261.6L259.1 261.6Q259.1 259.7 258.6 258.3Q258.0 256.9 257.0 256.1Q256.0 255.3 254.5 255.3L254.5 255.3Q253.0 255.3 252.0 256.0Q251.0 256.8 250.5 258.3Q249.9 259.7 249.9 261.6ZM269.0 243.5L275.0 243.5L275.0 272.5L269.0 272.5L269.0 243.5ZM285.6 272.5L279.5 272.5L279.5 250.7L285.6 250.7L285.6 272.5ZM282.6 247.9L282.6 247.9Q281.2 247.9 280.3 247.0Q279.3 246.1 279.3 244.8L279.3 244.8Q279.3 243.6 280.3 242.7Q281.2 241.8 282.6 241.8L282.6 241.8Q283.9 241.8 284.9 242.7Q285.8 243.6 285.8 244.8L285.8 244.8Q285.8 246.1 284.9 247.0Q283.9 247.9 282.6 247.9ZM300.0 273.0L300.0 273.0Q296.6 273.0 294.2 271.5Q291.8 270.1 290.5 267.6Q289.2 265.0 289.2 261.7L289.2 261.7Q289.2 258.4 290.5 255.8Q291.8 253.3 294.2 251.9Q296.6 250.4 299.9 250.4L299.9 250.4Q302.8 250.4 304.9 251.5Q307.1 252.5 308.3 254.4Q309.6 256.3 309.7 258.8L309.7 258.8L304.0 258.8Q303.7 257.2 302.7 256.2Q301.7 255.2 300.0 255.2L300.0 255.2Q298.6 255.2 297.6 255.9Q296.5 256.7 296.0 258.1Q295.4 259.6 295.4 261.6L295.4 261.6Q295.4 263.7 295.9 265.2Q296.5 266.7 297.6 267.4Q298.6 268.2 300.0 268.2L300.0 268.2Q301.1 268.2 301.9 267.8Q302.7 267.3 303.3 266.5Q303.8 265.7 304.0 264.5L304.0 264.5L309.7 264.5Q309.6 267.0 308.3 268.9Q307.1 270.8 305.0 271.9Q302.9 273.0 300.0 273.0ZM319.5 273.0L319.5 273.0Q317.4 273.0 315.8 272.2Q314.1 271.5 313.2 270.1Q312.3 268.6 312.3 266.5L312.3 266.5Q312.3 264.6 312.9 263.4Q313.6 262.2 314.7 261.4Q315.9 260.7 317.4 260.3Q318.8 259.9 320.4 259.7L320.4 259.7Q322.3 259.5 323.5 259.4Q324.7 259.2 325.2 258.8Q325.7 258.5 325.7 257.8L325.7 257.8L325.7 257.7Q325.7 256.3 324.9 255.6Q324.0 254.9 322.5 254.9L322.5 254.9Q320.9 254.9 319.9 255.6Q318.9 256.3 318.6 257.4L318.6 257.4L313.0 256.9Q313.4 254.9 314.7 253.5Q315.9 252.0 317.9 251.2Q319.9 250.4 322.5 250.4L322.5 250.4Q324.3 250.4 326.0 250.9Q327.7 251.3 329.0 252.2Q330.3 253.1 331.0 254.5Q331.8 255.9 331.8 257.8L331.8 257.8L331.8 272.5L326.0 272.5L326.0 269.5L325.9 269.5Q325.3 270.5 324.5 271.3Q323.6 272.1 322.3 272.5Q321.1 273.0 319.5 273.0ZM321.2 268.8L321.2 268.8Q322.6 268.8 323.6 268.2Q324.6 267.7 325.2 266.8Q325.8 265.9 325.8 264.7L325.8 264.7L325.8 262.4Q325.5 262.6 325.0 262.8Q324.5 262.9 323.9 263.0Q323.3 263.2 322.7 263.2Q322.1 263.3 321.6 263.4L321.6 263.4Q320.5 263.6 319.7 263.9Q318.9 264.3 318.5 264.8Q318.0 265.4 318.0 266.3L318.0 266.3Q318.0 267.5 318.9 268.1Q319.8 268.8 321.2 268.8ZM334.6 250.7L347.8 250.7L347.8 255.3L334.6 255.3L334.6 250.7ZM337.6 266.6L337.6 245.5L343.7 245.5L343.7 265.8Q343.7 266.7 343.9 267.1Q344.2 267.6 344.6 267.8Q345.1 268.0 345.7 268.0L345.7 268.0Q346.1 268.0 346.6 267.9Q347.0 267.8 347.2 267.8L347.2 267.8L348.2 272.3Q347.7 272.4 346.9 272.6Q346.1 272.8 344.9 272.8L344.9 272.8Q342.7 272.9 341.1 272.3Q339.4 271.6 338.5 270.2Q337.6 268.8 337.6 266.6L337.6 266.6ZM357.4 272.5L351.4 272.5L351.4 250.7L357.4 250.7L357.4 272.5ZM354.4 247.9L354.4 247.9Q353.1 247.9 352.1 247.0Q351.2 246.1 351.2 244.8L351.2 244.8Q351.2 243.6 352.1 242.7Q353.1 241.8 354.4 241.8L354.4 241.8Q355.8 241.8 356.7 242.7Q357.7 243.6 357.7 244.8L357.7 244.8Q357.7 246.1 356.7 247.0Q355.8 247.9 354.4 247.9ZM371.8 273.0L371.8 273.0Q368.5 273.0 366.1 271.6Q363.7 270.1 362.4 267.6Q361.1 265.1 361.1 261.7L361.1 261.7Q361.1 258.3 362.4 255.8Q363.7 253.3 366.1 251.9Q368.5 250.4 371.8 250.4L371.8 250.4Q375.1 250.4 377.5 251.9Q379.9 253.3 381.2 255.8Q382.5 258.3 382.5 261.7L382.5 261.7Q382.5 265.1 381.2 267.6Q379.9 270.1 377.5 271.6Q375.1 273.0 371.8 273.0ZM371.8 268.3L371.8 268.3Q373.3 268.3 374.3 267.4Q375.4 266.6 375.9 265.1Q376.4 263.6 376.4 261.7L376.4 261.7Q376.4 259.8 375.9 258.3Q375.4 256.8 374.3 255.9Q373.3 255.1 371.8 255.1L371.8 255.1Q370.3 255.1 369.3 255.9Q368.3 256.8 367.7 258.3Q367.2 259.8 367.2 261.7L367.2 261.7Q367.2 263.6 367.7 265.1Q368.3 266.6 369.3 267.4Q370.3 268.3 371.8 268.3ZM392.2 259.9L392.2 259.9L392.2 272.5L386.2 272.5L386.2 250.7L391.9 250.7L391.9 254.6L392.2 254.6Q392.9 252.7 394.6 251.6Q396.3 250.4 398.8 250.4L398.8 250.4Q401.0 250.4 402.7 251.4Q404.4 252.4 405.3 254.3Q406.3 256.1 406.3 258.7L406.3 258.7L406.3 272.5L400.2 272.5L400.2 259.7Q400.2 257.7 399.2 256.6Q398.2 255.5 396.4 255.5L396.4 255.5Q395.1 255.5 394.2 256.0Q393.3 256.5 392.8 257.5Q392.2 258.5 392.2 259.9ZM428.9 256.9L428.9 256.9L423.3 257.3Q423.2 256.6 422.7 256.0Q422.3 255.4 421.5 255.1Q420.7 254.7 419.7 254.7L419.7 254.7Q418.3 254.7 417.3 255.3Q416.3 255.9 416.3 256.9L416.3 256.9Q416.3 257.7 417.0 258.2Q417.6 258.8 419.1 259.1L419.1 259.1L423.1 259.9Q426.2 260.5 427.8 262.0Q429.4 263.4 429.4 265.8L429.4 265.8Q429.4 267.9 428.1 269.5Q426.9 271.2 424.7 272.1Q422.5 273.0 419.7 273.0L419.7 273.0Q415.3 273.0 412.8 271.2Q410.2 269.3 409.8 266.2L409.8 266.2L415.7 265.9Q416.0 267.2 417.0 267.9Q418.1 268.6 419.7 268.6L419.7 268.6Q421.3 268.6 422.2 268.0Q423.2 267.4 423.2 266.4L423.2 266.4Q423.2 265.6 422.5 265.0Q421.8 264.5 420.4 264.2L420.4 264.2L416.6 263.5Q413.4 262.8 411.9 261.3Q410.3 259.7 410.3 257.2L410.3 257.2Q410.3 255.1 411.5 253.6Q412.6 252.1 414.7 251.3Q416.8 250.4 419.6 250.4L419.6 250.4Q423.7 250.4 426.1 252.2Q428.5 253.9 428.9 256.9Z M452.5 272.5L446.1 272.5L440.2 250.7L446.3 250.7L449.7 265.4L449.9 265.4L453.4 250.7L459.4 250.7L463.0 265.3L463.2 265.3L466.5 250.7L472.6 250.7L466.7 272.5L460.3 272.5L456.5 258.8L456.3 258.8L452.5 272.5ZM481.6 272.5L475.5 272.5L475.5 250.7L481.6 250.7L481.6 272.5ZM478.6 247.9L478.6 247.9Q477.2 247.9 476.2 247.0Q475.3 246.1 475.3 244.8L475.3 244.8Q475.3 243.6 476.2 242.7Q477.2 241.8 478.6 241.8L478.6 241.8Q479.9 241.8 480.9 242.7Q481.8 243.6 481.8 244.8L481.8 244.8Q481.8 246.1 480.9 247.0Q479.9 247.9 478.6 247.9ZM484.5 250.7L497.7 250.7L497.7 255.3L484.5 255.3L484.5 250.7ZM487.5 266.6L487.5 245.5L493.6 245.5L493.6 265.8Q493.6 266.7 493.8 267.1Q494.1 267.6 494.5 267.8Q495.0 268.0 495.6 268.0L495.6 268.0Q496.0 268.0 496.5 267.9Q496.9 267.8 497.1 267.8L497.1 267.8L498.1 272.3Q497.6 272.4 496.8 272.6Q496.0 272.8 494.8 272.8L494.8 272.8Q492.6 272.9 491.0 272.3Q489.3 271.6 488.4 270.2Q487.5 268.8 487.5 266.6L487.5 266.6ZM507.8 259.9L507.8 259.9L507.8 272.5L501.7 272.5L501.7 243.5L507.6 243.5L507.6 254.6L507.9 254.6Q508.6 252.6 510.3 251.5Q511.9 250.4 514.4 250.4L514.4 250.4Q516.7 250.4 518.4 251.4Q520.1 252.4 521.0 254.3Q522.0 256.1 521.9 258.7L521.9 258.7L521.9 272.5L515.9 272.5L515.9 259.7Q515.9 257.7 514.9 256.6Q513.9 255.5 512.0 255.5L512.0 255.5Q510.8 255.5 509.8 256.0Q508.9 256.5 508.3 257.5Q507.8 258.5 507.8 259.9Z M544.8 273.0L544.8 273.0Q541.5 273.0 539.1 271.6Q536.6 270.2 535.3 267.7Q534.0 265.2 534.0 261.7L534.0 261.7Q534.0 258.4 535.3 255.8Q536.6 253.3 539.0 251.9Q541.4 250.4 544.6 250.4L544.6 250.4Q546.8 250.4 548.6 251.1Q550.5 251.8 551.9 253.2Q553.3 254.6 554.1 256.7Q554.9 258.7 554.9 261.5L554.9 261.5L554.9 263.2L536.4 263.2L536.4 259.4L549.2 259.4Q549.2 258.1 548.6 257.1Q548.0 256.1 547.0 255.5Q546.0 255.0 544.7 255.0L544.7 255.0Q543.3 255.0 542.3 255.6Q541.2 256.2 540.6 257.3Q540.0 258.3 540.0 259.6L540.0 259.6L540.0 263.2Q540.0 264.8 540.6 266.0Q541.2 267.2 542.3 267.8Q543.4 268.5 544.9 268.5L544.9 268.5Q546.0 268.5 546.8 268.2Q547.6 267.9 548.2 267.3Q548.8 266.8 549.1 265.9L549.1 265.9L554.7 266.3Q554.3 268.3 553.0 269.8Q551.7 271.3 549.6 272.1Q547.5 273.0 544.8 273.0ZM564.7 273.0L564.7 273.0Q562.6 273.0 561.0 272.2Q559.4 271.5 558.4 270.1Q557.5 268.6 557.5 266.5L557.5 266.5Q557.5 264.6 558.1 263.4Q558.8 262.2 560.0 261.4Q561.1 260.7 562.6 260.3Q564.0 259.9 565.7 259.7L565.7 259.7Q567.6 259.5 568.7 259.4Q569.9 259.2 570.4 258.8Q570.9 258.5 570.9 257.8L570.9 257.8L570.9 257.7Q570.9 256.3 570.1 255.6Q569.3 254.9 567.7 254.9L567.7 254.9Q566.1 254.9 565.1 255.6Q564.1 256.3 563.8 257.4L563.8 257.4L558.2 256.9Q558.7 254.9 559.9 253.5Q561.2 252.0 563.1 251.2Q565.1 250.4 567.7 250.4L567.7 250.4Q569.6 250.4 571.2 250.9Q572.9 251.3 574.2 252.2Q575.5 253.1 576.2 254.5Q577.0 255.9 577.0 257.8L577.0 257.8L577.0 272.5L571.3 272.5L571.3 269.5L571.1 269.5Q570.6 270.5 569.7 271.3Q568.8 272.1 567.6 272.5Q566.3 273.0 564.7 273.0ZM566.4 268.8L566.4 268.8Q567.8 268.8 568.8 268.2Q569.8 267.7 570.4 266.8Q571.0 265.9 571.0 264.7L571.0 264.7L571.0 262.4Q570.7 262.6 570.2 262.8Q569.7 262.9 569.1 263.0Q568.5 263.2 567.9 263.2Q567.3 263.3 566.8 263.4L566.8 263.4Q565.7 263.6 564.9 263.9Q564.1 264.3 563.7 264.8Q563.2 265.4 563.2 266.3L563.2 266.3Q563.2 267.5 564.1 268.1Q565.1 268.8 566.4 268.8ZM599.5 256.9L599.5 256.9L594.0 257.3Q593.8 256.6 593.4 256.0Q592.9 255.4 592.2 255.1Q591.4 254.7 590.3 254.7L590.3 254.7Q588.9 254.7 588.0 255.3Q587.0 255.9 587.0 256.9L587.0 256.9Q587.0 257.7 587.6 258.2Q588.3 258.8 589.8 259.1L589.8 259.1L593.7 259.9Q596.9 260.5 598.5 262.0Q600.0 263.4 600.0 265.8L600.0 265.8Q600.0 267.9 598.8 269.5Q597.5 271.2 595.3 272.1Q593.2 273.0 590.3 273.0L590.3 273.0Q586.0 273.0 583.4 271.2Q580.9 269.3 580.4 266.2L580.4 266.2L586.4 265.9Q586.6 267.2 587.7 267.9Q588.7 268.6 590.3 268.6L590.3 268.6Q591.9 268.6 592.9 268.0Q593.9 267.4 593.9 266.4L593.9 266.4Q593.9 265.6 593.2 265.0Q592.5 264.5 591.1 264.2L591.1 264.2L587.3 263.5Q584.1 262.8 582.5 261.3Q581.0 259.7 581.0 257.2L581.0 257.2Q581.0 255.1 582.1 253.6Q583.3 252.1 585.4 251.3Q587.4 250.4 590.2 250.4L590.2 250.4Q594.4 250.4 596.8 252.2Q599.1 253.9 599.5 256.9ZM613.5 273.0L613.5 273.0Q610.1 273.0 607.7 271.6Q605.3 270.2 604.0 267.7Q602.6 265.2 602.6 261.7L602.6 261.7Q602.6 258.4 604.0 255.8Q605.3 253.3 607.6 251.9Q610.0 250.4 613.2 250.4L613.2 250.4Q615.4 250.4 617.3 251.1Q619.1 251.8 620.5 253.2Q621.9 254.6 622.7 256.7Q623.5 258.7 623.5 261.5L623.5 261.5L623.5 263.2L605.1 263.2L605.1 259.4L617.8 259.4Q617.8 258.1 617.2 257.1Q616.7 256.1 615.7 255.5Q614.7 255.0 613.3 255.0L613.3 255.0Q612.0 255.0 610.9 255.6Q609.8 256.2 609.2 257.3Q608.6 258.3 608.6 259.6L608.6 259.6L608.6 263.2Q608.6 264.8 609.2 266.0Q609.8 267.2 610.9 267.8Q612.1 268.5 613.6 268.5L613.6 268.5Q614.6 268.5 615.4 268.2Q616.3 267.9 616.9 267.3Q617.5 266.8 617.8 265.9L617.8 265.9L623.4 266.3Q622.9 268.3 621.6 269.8Q620.3 271.3 618.2 272.1Q616.2 273.0 613.5 273.0ZM630.7 272.9L630.7 272.9Q629.2 272.9 628.2 271.9Q627.2 270.9 627.2 269.5L627.2 269.5Q627.2 268.1 628.2 267.1Q629.2 266.1 630.7 266.1L630.7 266.1Q632.0 266.1 633.0 267.1Q634.1 268.1 634.1 269.5L634.1 269.5Q634.1 270.4 633.6 271.2Q633.1 272.0 632.3 272.5Q631.6 272.9 630.7 272.9Z "/></svg>